<?xml version="1.0" encoding="utf-8"?>
<!-- Generator: Adobe Illustrator 22.0.0, SVG Export Plug-In . SVG Version: 6.00 Build 0)  -->
<svg version="1.1" id="Capa_1" xmlns="http://www.w3.org/2000/svg" xmlns:xlink="http://www.w3.org/1999/xlink" x="0px" y="0px"
	 viewBox="0 0 1000 1000" style="enable-background:new 0 0 1000 1000;" xml:space="preserve">
<style type="text/css">
	.st0{fill:#E8E8E8;}
	.st1{fill:#752C07;}
	.st2{fill:url(#SVGID_1_);}
	.st3{fill:#B24500;}
	.st4{opacity:0.1;}
	.st5{fill:#B77548;}
	.st6{fill:none;stroke:#CC793B;stroke-width:3;stroke-miterlimit:10;}
	.st7{fill:#454B4B;}
	.st8{fill:#A56A42;}
	.st9{fill:#A85B27;}
	.st10{fill:#880000;}
	.st11{fill:none;}
	.st12{fill:none;stroke:#000000;stroke-width:3;stroke-miterlimit:10;}
	.st13{fill:#FFFFFF;stroke:#000000;stroke-width:3;stroke-miterlimit:10;}
</style>
<circle class="st0" cx="500" cy="500" r="342"/>
<circle class="st1" cx="500" cy="500" r="332"/>
<linearGradient id="SVGID_1_" gradientUnits="userSpaceOnUse" x1="500" y1="207.5" x2="500" y2="792.5">
	<stop  offset="0" style="stop-color:#E94027"/>
	<stop  offset="0.4333" style="stop-color:#A63930;stop-opacity:0.9718"/>
	<stop  offset="1" style="stop-color:#000000;stop-opacity:0.8"/>
</linearGradient>
<circle class="st2" cx="500" cy="500" r="292.5"/>
<g>
	<defs>
		<path id="SVGID_2_" d="M-741.5,1450c-77-27.4-198.9-60.6-351-60c-148.1,0.6-266.9,32.9-343,60v-289c92.7,20,211.1,37.2,349,37
			c136.1-0.2,253.1-17.2,345-37V1450z"/>
	</defs>
	<clipPath id="SVGID_3_">
		<use xlink:href="#SVGID_2_"  style="overflow:visible;"/>
	</clipPath>
	<use xlink:href="#SVGID_2_"  style="overflow:visible;fill:none;stroke:#000000;stroke-width:2;stroke-miterlimit:10;"/>
</g>
<text transform="matrix(1 0 0 1 -1268.5483 1286.7422)" style="font-family:'AvertaDemoPE-ExtraBold'; font-size:72px;">Mr.</text>
<path class="st3" d="M265.5,254c59.3,15.3,139.4,29.8,234.5,30c97,0.2,178.5-14.5,238.5-30c47.2,0,85.5,38.3,85.5,85.5v0
	c0,47.2-38.3,85.5-85.5,85.5h-473c-47.2,0-85.5-38.3-85.5-85.5v0C180,292.3,218.3,254,265.5,254z"/>
<g class="st4">
	<g>
		<path d="M563,284.3c-2.1,6.8-4.1,13.7-6.5,20.4c-2.1,5.8-4.3,12.2-8.4,17c-4.1,4.9,2.9,12,7.1,7.1c9.7-11.4,13.2-27.8,17.5-41.8
			C574.5,280.8,564.8,278.2,563,284.3L563,284.3z"/>
	</g>
</g>
<path class="st5" d="M530.5,283.5l37-2c0,0-2,44-31,69C536.5,350.5,566.5,305.5,530.5,283.5z"/>
<g class="st4">
	<g>
		<path d="M813.9,351.3c-2.1,13.1-5.4,27-14.6,37.1c-4.2,4.6-9.4,7.9-14.5,11.4c-5.7,3.9-11.5,7.6-17.9,10.3
			c-5.9,2.4-3.3,12.1,2.7,9.6c6.9-2.9,13.3-6.5,19.6-10.8c6-4.1,12.3-8.1,17.3-13.5c10.5-11.4,14.8-26.5,17.2-41.5
			C824.5,347.7,814.9,345,813.9,351.3L813.9,351.3z"/>
	</g>
</g>
<g class="st4">
	<g>
		<path d="M257.5,255.8c-20.9,1.8-45,8.8-58.1,26.5c-13,17.5-22.2,41.2-18.3,63c1.1,6.3,10.8,3.6,9.6-2.7c-3.3-18.6,5.8-39,16.3-54
			c4.9-7,13.5-12.4,21.1-16.1c8.6-4.2,19.9-6.1,29.3-6.9C263.9,265.2,263.9,255.2,257.5,255.8L257.5,255.8z"/>
	</g>
</g>
<g class="st4">
	<g>
		<path d="M438.9,369.3c2-2.6,6.4-2.2,9.3-2.2c3.3,0,5.8,0.9,8.6,2.5c1.4,0.8,2.7-1.4,1.3-2.2c-3.6-2-6.8-2.9-10.9-2.8
			c-3.4,0.1-7.8,0-10.1,2.9C436.1,368.8,437.9,370.6,438.9,369.3L438.9,369.3z"/>
	</g>
</g>
<g class="st4">
	<g>
		<path d="M472.9,326.3c2-2.6,6.4-2.2,9.3-2.2c3.3,0,5.8,0.9,8.6,2.5c1.4,0.8,2.7-1.4,1.3-2.2c-3.6-2-6.8-2.9-10.9-2.8
			c-3.4,0.1-7.8,0-10.1,2.9C470.1,325.8,471.9,327.6,472.9,326.3L472.9,326.3z"/>
	</g>
</g>
<g class="st4">
	<g>
		<path d="M506.9,349.3c2-2.6,6.4-2.2,9.3-2.2c3.3,0,5.8,0.9,8.6,2.5c1.4,0.8,2.7-1.4,1.3-2.2c-3.6-2-6.8-2.9-10.9-2.8
			c-3.4,0.1-7.8,0-10.1,2.9C504.1,348.8,505.9,350.6,506.9,349.3L506.9,349.3z"/>
	</g>
</g>
<g class="st4">
	<g>
		<path d="M542.9,336.3c2-2.6,6.4-2.2,9.3-2.2c3.3,0,5.8,0.9,8.6,2.5c1.4,0.8,2.7-1.4,1.3-2.2c-3.6-2-6.8-2.9-10.9-2.8
			c-3.4,0.1-7.8,0-10.1,2.9C540.1,335.8,541.9,337.6,542.9,336.3L542.9,336.3z"/>
	</g>
</g>
<g class="st4">
	<g>
		<path d="M427,284.3c-2.1,6.8-4.1,13.7-6.5,20.4c-2.1,5.8-4.3,12.2-8.4,17c-4.1,4.9,2.9,12,7.1,7.1c9.7-11.4,13.2-27.8,17.5-41.8
			C438.5,280.8,428.8,278.2,427,284.3L427,284.3z"/>
	</g>
</g>
<g class="st4">
	<g>
		<path d="M674,269.3c-2.5,8.1-4.3,16.4-6.6,24.5c-1.9,6.7-3.6,15.4-8.2,20.8c-4.1,4.9,2.9,12,7.1,7.1c5.3-6.3,7.8-14.8,10-22.6
			c2.7-9,4.7-18.2,7.4-27.2C685.5,265.8,675.8,263.2,674,269.3L674,269.3z"/>
	</g>
</g>
<text transform="matrix(1 0 0 1 -1194.8711 1348.5811)" style="font-family:'AvertaDemoPE-ExtraBold'; font-size:72px;">Trinche</text>
<path class="st6" d="M265.5,254c59.3,15.3,139.4,29.8,234.5,30c97,0.2,178.5-14.5,238.5-30c47.2,0,85.5,38.3,85.5,85.5v0
	c0,47.2-38.3,85.5-85.5,85.5h-473c-47.2,0-85.5-38.3-85.5-85.5v0C180,292.3,218.3,254,265.5,254z"/>
<path class="st7" d="M534,854c0,0-32,63-69,0l14-263c0,0-2-41-20-61s-20-34-20-34l1-129h13v100h22V324h14v143h20V348h14v120h21V335
	h15l3,161c0,0-5,15-16,28c0,0-20,13-25,67L534,854z"/>
<g>
	<g>
		<path class="st7" d="M561.6,335.2c-5.5-3.2-14.9-3.6-20.1,0.3c-1.5,1.1,0,3.7,1.5,2.6c4.3-3.2,12.5-2.9,17.1-0.3
			C561.8,338.7,563.3,336.2,561.6,335.2L561.6,335.2z"/>
	</g>
</g>
<g>
	<g>
		<path class="st7" d="M491.6,325.2c-5.5-3.2-14.9-3.6-20.1,0.3c-1.5,1.1,0,3.7,1.5,2.6c4.3-3.2,12.5-2.9,17.1-0.3
			C491.8,328.7,493.3,326.2,491.6,325.2L491.6,325.2z"/>
	</g>
</g>
<g>
	<g>
		<path class="st7" d="M457.6,368.2c-5.5-3.2-14.9-3.6-20.1,0.3c-1.5,1.1,0,3.7,1.5,2.6c4.3-3.2,12.5-2.9,17.1-0.3
			C457.8,371.7,459.3,369.2,457.6,368.2L457.6,368.2z"/>
	</g>
</g>
<g>
	<g>
		<path class="st7" d="M525.6,348.2c-5.5-3.2-14.9-3.6-20.1,0.3c-1.5,1.1,0,3.7,1.5,2.6c4.3-3.2,12.5-2.9,17.1-0.3
			C525.8,351.7,527.3,349.2,525.6,348.2L525.6,348.2z"/>
	</g>
</g>
<rect x="-250" y="519" class="st8" width="138" height="128"/>
<g>
	<rect x="-250" y="664" class="st9" width="138" height="128"/>
	<g>
		<path class="st9" d="M-112,787c-40.2,0-80.4,0-120.6,0c-5.8,0-11.6,0-17.4,0c1.7,1.7,3.3,3.3,5,5c0-37.4,0-74.9,0-112.3
			c0-5.2,0-10.5,0-15.7c-1.7,1.7-3.3,3.3-5,5c40.2,0,80.4,0,120.6,0c5.8,0,11.6,0,17.4,0c-1.7-1.7-3.3-3.3-5-5
			c0,37.4,0,74.9,0,112.3c0,5.2,0,10.5,0,15.7c0,6.4,10,6.4,10,0c0-37.4,0-74.9,0-112.3c0-5.2,0-10.5,0-15.7c0-2.7-2.3-5-5-5
			c-40.2,0-80.4,0-120.6,0c-5.8,0-11.6,0-17.4,0c-2.7,0-5,2.3-5,5c0,37.4,0,74.9,0,112.3c0,5.2,0,10.5,0,15.7c0,2.7,2.3,5,5,5
			c40.2,0,80.4,0,120.6,0c5.8,0,11.6,0,17.4,0C-105.6,797-105.6,787-112,787z"/>
	</g>
</g>
<path class="st5" d="M641.5,273.5l37-6c0,0-2,51-31,76C647.5,343.5,677.5,295.5,641.5,273.5z"/>
<path class="st5" d="M394.5,278.5l37,2c0,0-2,45-31,70C400.5,350.5,430.5,300.5,394.5,278.5z"/>
<path class="st0" d="M255.2,738.9c75.9-15.4,135.5-23.2,244.4-23.6c113.5-0.4,178.7,8.8,256.7,24.6c16.5,22.7,16.9,53.2,1.1,76.3
	l-1.1,1.5c-73.2-18.6-139.2-32-256.7-31.5c-112.8,0.5-173,12.4-244.4,30.5c-0.5-0.5-1.3-1.3-2.2-2.4c-15.1-17-14.5-38.2-14.5-38.2
	C239,754.8,252.5,741.5,255.2,738.9z"/>
<path class="st10" d="M257,744c66.2-13.5,148.8-24.7,244-25c99.1-0.4,184.9,11.2,253,25c14.4,19.8,14.8,46.5,0.9,66.7L754,812
	c-63.9-16.2-150.3-31.5-253-31c-98.5,0.4-181.7,15.2-244,31c-0.5-0.5-1.2-1.2-1.9-2.1c-13.2-14.9-12.7-33.4-12.7-33.4
	C242.9,757.9,254.6,746.3,257,744z"/>
<path id="SVGID_x5F_4_x5F_" class="st11" d="M254,863c-0.5-0.5-1.2-1.2-1.9-2.1c-13.2-14.9-12.7-33.4-12.7-33.4
	c0.5-18.6,12.3-30.3,14.6-32.6c66.2-13.5,148.8-24.7,244-25c99.1-0.4,184.9,11.2,253,25c14.4,19.8,14.8,46.5,0.9,66.7L751,863"/>
<text><textPath  xlink:href="#SVGID_x5F_4_x5F_" startOffset="44.0287%">
<tspan  style="fill:#FFFFFF;stroke:#000000;stroke-width:2;stroke-miterlimit:10; font-family:'AvertaDemoPE-ExtraBold'; font-size:60px;">          Mr. Trinche</tspan></textPath>
</text>
<circle class="st0" cx="739" cy="772" r="15"/>
<circle class="st0" cx="270" cy="772" r="15"/>
<path class="st12" d="M457.5,503.9c0,0,11.4-15.2,26.6,0"/>
<circle class="st13" cx="529.7" cy="502" r="14.3"/>
<circle cx="529.7" cy="502" r="3.8"/>
<rect x="1491.5" y="2095.5" class="st12" width="1382" height="654"/>
<path d="M373.5,519.7C377,524,381,527,385,530c1.8,1.5,3.6,2.8,5.4,4c15.7,11,27.9,12.6,36.8,11.4c19.8-2.5,30.1-19.6,48.2-16.6
	c12,2,20.4,11.7,25.4,19.1c5-8.2,13-18.1,24.3-19.9c18-2.9,28.1,17.1,48.2,19.9c12.2,1.7,29.7-2.8,53.7-29.1c4,41.4-21,67-55.2,75.6
	c-38.5,9.7-69.8-9.7-71.4-11.2c-15.3,15.9-35.8,17-56.1,13.1c-3.4-0.6-6.8-1.4-10.1-2.3C404,588,371,566,372.8,530.9
	C372.8,527.3,373,523.6,373.5,519.7z"/>
</svg>
